<mxfile host="Electron" modified="2024-10-16T19:01:39.931Z" agent="Mozilla/5.0 (Windows NT 10.0; Win64; x64) AppleWebKit/537.36 (KHTML, like Gecko) draw.io/21.2.1 Chrome/112.0.5615.87 Electron/24.1.2 Safari/537.36" etag="0jZZCGCnY1Fc1Hf7SW_T" version="21.2.1" type="device">
  <diagram name="Page-1" id="2J4KsDlZiteHG6-lryxp">
    <mxGraphModel dx="819" dy="478" grid="1" gridSize="10" guides="1" tooltips="1" connect="1" arrows="1" fold="1" page="1" pageScale="1" pageWidth="850" pageHeight="1100" math="0" shadow="0">
      <root>
        <mxCell id="0" />
        <mxCell id="1" parent="0" />
        <mxCell id="v0kFn524da7I8ryfjd51-6" value="" style="edgeStyle=orthogonalEdgeStyle;rounded=0;orthogonalLoop=1;jettySize=auto;html=1;curved=1;" edge="1" parent="1" source="v0kFn524da7I8ryfjd51-1" target="v0kFn524da7I8ryfjd51-5">
          <mxGeometry relative="1" as="geometry" />
        </mxCell>
        <mxCell id="v0kFn524da7I8ryfjd51-12" value="NB_App V SB_App / &lt;br&gt;Alarm: = ON" style="edgeLabel;html=1;align=center;verticalAlign=middle;resizable=0;points=[];" vertex="1" connectable="0" parent="v0kFn524da7I8ryfjd51-6">
          <mxGeometry x="-0.4" y="-2" relative="1" as="geometry">
            <mxPoint x="22" y="-2" as="offset" />
          </mxGeometry>
        </mxCell>
        <mxCell id="v0kFn524da7I8ryfjd51-1" value="IDLE&lt;br&gt;State: 0" style="ellipse;whiteSpace=wrap;html=1;" vertex="1" parent="1">
          <mxGeometry x="340" y="200" width="140" height="80" as="geometry" />
        </mxCell>
        <mxCell id="v0kFn524da7I8ryfjd51-8" value="" style="edgeStyle=orthogonalEdgeStyle;rounded=0;orthogonalLoop=1;jettySize=auto;html=1;curved=1;exitX=0.5;exitY=1;exitDx=0;exitDy=0;" edge="1" parent="1" source="v0kFn524da7I8ryfjd51-5" target="v0kFn524da7I8ryfjd51-7">
          <mxGeometry relative="1" as="geometry">
            <Array as="points">
              <mxPoint x="675" y="470" />
            </Array>
          </mxGeometry>
        </mxCell>
        <mxCell id="v0kFn524da7I8ryfjd51-15" value="elapsed /&amp;nbsp;&lt;br&gt;Lower_Barrier" style="edgeLabel;html=1;align=center;verticalAlign=middle;resizable=0;points=[];" vertex="1" connectable="0" parent="v0kFn524da7I8ryfjd51-8">
          <mxGeometry x="0.4403" y="-5" relative="1" as="geometry">
            <mxPoint as="offset" />
          </mxGeometry>
        </mxCell>
        <mxCell id="v0kFn524da7I8ryfjd51-5" value="ALARM_RINGING&lt;br&gt;Arrived&lt;br&gt;State: 5 and 6" style="ellipse;whiteSpace=wrap;html=1;" vertex="1" parent="1">
          <mxGeometry x="600" y="310" width="150" height="80" as="geometry" />
        </mxCell>
        <mxCell id="v0kFn524da7I8ryfjd51-10" value="" style="edgeStyle=orthogonalEdgeStyle;rounded=0;orthogonalLoop=1;jettySize=auto;html=1;curved=1;" edge="1" parent="1" source="v0kFn524da7I8ryfjd51-7" target="v0kFn524da7I8ryfjd51-9">
          <mxGeometry relative="1" as="geometry" />
        </mxCell>
        <mxCell id="v0kFn524da7I8ryfjd51-16" value="SB_Dep V SB_Dep /&amp;nbsp;&lt;br&gt;Raise_Barrier" style="edgeLabel;html=1;align=center;verticalAlign=middle;resizable=0;points=[];" vertex="1" connectable="0" parent="v0kFn524da7I8ryfjd51-10">
          <mxGeometry x="-0.2179" y="-6" relative="1" as="geometry">
            <mxPoint y="6" as="offset" />
          </mxGeometry>
        </mxCell>
        <mxCell id="v0kFn524da7I8ryfjd51-7" value="BARRIER_LOWERED&lt;br&gt;State: 13 and 14" style="ellipse;whiteSpace=wrap;html=1;" vertex="1" parent="1">
          <mxGeometry x="340" y="430" width="140" height="80" as="geometry" />
        </mxCell>
        <mxCell id="v0kFn524da7I8ryfjd51-11" style="edgeStyle=orthogonalEdgeStyle;curved=1;rounded=0;orthogonalLoop=1;jettySize=auto;html=1;exitX=0.5;exitY=0;exitDx=0;exitDy=0;entryX=0;entryY=0.5;entryDx=0;entryDy=0;" edge="1" parent="1" source="v0kFn524da7I8ryfjd51-9" target="v0kFn524da7I8ryfjd51-1">
          <mxGeometry relative="1" as="geometry" />
        </mxCell>
        <mxCell id="v0kFn524da7I8ryfjd51-17" value="elapsed /&amp;nbsp;&lt;br&gt;Alarm: = OFF" style="edgeLabel;html=1;align=center;verticalAlign=middle;resizable=0;points=[];" vertex="1" connectable="0" parent="v0kFn524da7I8ryfjd51-11">
          <mxGeometry x="0.1642" y="-9" relative="1" as="geometry">
            <mxPoint as="offset" />
          </mxGeometry>
        </mxCell>
        <mxCell id="v0kFn524da7I8ryfjd51-19" style="edgeStyle=orthogonalEdgeStyle;curved=1;rounded=0;orthogonalLoop=1;jettySize=auto;html=1;exitX=1;exitY=0.5;exitDx=0;exitDy=0;" edge="1" parent="1" source="v0kFn524da7I8ryfjd51-9" target="v0kFn524da7I8ryfjd51-5">
          <mxGeometry relative="1" as="geometry" />
        </mxCell>
        <mxCell id="v0kFn524da7I8ryfjd51-20" value="NB_App V SB_App /&lt;br style=&quot;border-color: var(--border-color);&quot;&gt;Alarm: = Still On" style="edgeLabel;html=1;align=center;verticalAlign=middle;resizable=0;points=[];" vertex="1" connectable="0" parent="v0kFn524da7I8ryfjd51-19">
          <mxGeometry x="-0.1127" y="1" relative="1" as="geometry">
            <mxPoint as="offset" />
          </mxGeometry>
        </mxCell>
        <mxCell id="v0kFn524da7I8ryfjd51-9" value="TRAIN_CLEARED&lt;br&gt;Depature&lt;br&gt;State: 4" style="ellipse;whiteSpace=wrap;html=1;" vertex="1" parent="1">
          <mxGeometry x="90" y="310" width="140" height="80" as="geometry" />
        </mxCell>
      </root>
    </mxGraphModel>
  </diagram>
</mxfile>
